<svg version="1" xmlns="http://www.w3.org/2000/svg" width="1260" height="1260" viewBox="0 0 945.000000 945.000000"><path d="M452.5 104.6c-8.8 5.2-16.9 9.9-18 10.5-1.1.5-3.3 1.7-5 2.8-3.8 2.3-26.6 15.5-32.5 18.9-2.5 1.4-12.8 7.3-23 13.2-10.2 5.9-20.5 11.8-23 13.2-2.5 1.4-25.6 14.8-51.5 29.8-45.1 26.1-83.1 48-90.5 52.2-6 3.4-35.9 20.8-47.3 27.5-5.9 3.5-11 6.3-11.2 6.3-.3 0-2.2 1.1-4.3 2.5l-3.7 2.5v65.9c0 36.3.2 66.1.5 66.3.3.3 25 14.5 55 31.7 30 17.3 61.7 35.5 70.5 40.6 8.8 5.1 21.9 12.6 29 16.7l13 7.5.3-65.1.3-65.1 43.6-25c23.9-13.8 58.9-33.9 77.7-44.7 18.7-10.8 35.2-20.3 36.6-21.1 2.3-1.2 60.1-34.4 81-46.5 5.2-3 10.9-6.3 12.5-7.2 1.7-.9 18.5-10.6 37.5-21.5s35.7-20.6 37.2-21.4c1.6-.9 2.8-1.8 2.8-2.1-.1-.3-9.2-5.7-20.3-12-11.1-6.3-30.5-17.4-43-24.7-12.6-7.3-23-13.3-23.2-13.3-.3 0-4.4-2.3-9.2-5.2-4.8-2.8-9.7-5.7-10.8-6.2-1.5-.9-34.7-20.1-42.5-24.6-11.7-6.9-21-12-21.7-11.9-.4 0-8 4.3-16.8 9.5z"/><path d="M659 227.3c-108.4 62.7-144.8 83.8-146.3 84.9-1.5 1.2 1.1 3 22 15.3 13.1 7.6 30.8 18 39.3 23.1 8.5 5 24.3 14.3 35 20.6l19.5 11.5.5 187.6.5 187.7 23.5-13.6c12.9-7.5 25.3-14.6 27.5-15.8 27.3-15.7 38.4-22.1 40.5-23.6 2-1.4 18.9-11.2 34.4-20 5.9-3.3 23.1-13.3 32.2-18.6l9.1-5.4.1-188.8V283.3l-58.3-33.6c-32.1-18.6-58.7-33.7-59.2-33.7-.4 0-9.6 5.1-20.3 11.3z"/><path d="M502.4 366.8c-2.1.3-2.2.7-2.2 18 0 9.7-.1 18.5-.1 19.4-.1 1.6-1.3 1.8-11.5 1.8-9.3 0-11.6.3-12.7 1.6-2 2.4-2.1 138.7-.1 141.5 1.2 1.7 2.7 1.9 12.8 1.9 11.1 0 11.4.1 11.5 2.2.1 1.3.1 10.1.1 19.5l.1 17.3 2.8.1c1.6.1 4.1.1 5.7.2l2.7.1.3-19.7.2-19.7h12.3c9 0 12.8-.4 14.3-1.4 1.8-1.4 1.9-3.4 1.9-71.1 0-67.8-.1-69.7-1.9-71.1-1.5-1-5.2-1.4-14.3-1.4H512v-38.8l-3.7-.3c-2.1-.2-4.8-.3-5.9-.1zM405 409.8v19.8l-11.7.1c-9.7.1-11.9.4-12.9 1.8-.9 1.2-1.2 12.4-1.2 46.3 0 51.6-.4 49.3 8.1 49.1 2.8-.1 8-.1 11.5 0l6.2.1v39l2.5.1c1.4.1 3.6.1 5 .1s2.9 0 3.4-.1c.4-.1.8-8.7.8-19.1 0-10.5.3-19.3.5-19.5.2-.3 5.9-.5 12.6-.6 9.4 0 12.6-.4 13.7-1.6 2.3-2.2 2.2-92.4 0-94.3-1.1-.9-5.3-1.3-14-1.3-10.9.1-12.5-.1-12.6-1.6 0-.9-.1-9.7-.2-19.6l-.2-18-5.7-.3-5.8-.3v19.9z"/><path d="M141.6 484.3c.2 11.7.6 56.3.9 99.1.3 42.9.6 78 .8 78.1.1.1 9.2 5.4 20.2 11.7 11 6.4 21.6 12.5 23.5 13.7 1.9 1.1 4.2 2.4 5 2.8.8.3 4.7 2.5 8.5 4.8 3.9 2.3 17.8 10.4 31 18s29.4 16.9 36 20.8c6.6 3.8 13.6 7.9 15.5 9 3.2 1.8 19.9 11.4 57.2 32.9 8 4.7 15.2 8.8 16 9.2.7.3 2.9 1.6 4.8 2.7 4.3 2.6 53.2 30.9 58 33.6 1.9 1.1 12.6 7.2 23.6 13.6 11.1 6.5 20.7 11.7 21.3 11.7.6 0 1.1.4 1.1.8 0 .5 1.2 1.4 2.6 2.1 2.4 1.1 4.2.2 24.8-11.7 12.1-7.1 38.4-22.3 58.3-33.8l36.3-20.9v-98.4c0-90.3-.1-98.3-1.6-97.7-.9.4-17.7 9.7-37.3 20.8-19.6 11.1-45 25.5-56.6 32-11.5 6.6-21.7 11.7-22.5 11.5-.8-.2-24-13.4-51.5-29.2-27.5-15.9-51.8-29.8-54-31-2.2-1.3-26-15-53-30.5-26.9-15.6-65.6-37.8-86-49.5-20.3-11.7-46.8-26.9-58.7-33.8-12-6.9-22.4-12.7-23.1-13-1.1-.4-1.3 3.4-1.1 20.6z"/></svg>